<?xml version="1.0" encoding="utf-8"?>
<!DOCTYPE svg PUBLIC "-//W3C//DTD SVG 1.1//EN" "http://www.w3.org/Graphics/SVG/1.1/DTD/svg11.dtd">
<svg version="1.1"
  xmlns="http://www.w3.org/2000/svg"
  x="0px" y="0px" width="1080px" height="300px" viewBox="0 0 1080 300" enable-background="new 0 0 1080 300">
  <defs>
    <filter id="Adobe_OpacityMaskFilter" filterUnits="userSpaceOnUse" x="6" y="17.642" width="266.915" height="270.097">
      <feFlood style="flood-color:white;flood-opacity:1" result="back"/>
      <feBlend in="SourceGraphic" in2="back" mode="normal"/>
    </filter>
  </defs>
  <mask maskUnits="userSpaceOnUse" x="6" y="17.642" width="266.915" height="270.097" id="Layer_1">
    <g filter="url(#Adobe_OpacityMaskFilter)">
      <line fill="none" stroke="#231F20" stroke-miterlimit="10" x1="113.136" y1="40.931" x2="113.136" y2="70.48"/>
      <line fill="none" stroke="#231F20" stroke-miterlimit="10" x1="113.136" y1="69.569" x2="96.55" y2="95.134"/>
      <line fill="none" stroke="#231F20" stroke-miterlimit="10" x1="96.55" y1="94.363" x2="96.55" y2="110.151"/>
      <line fill="none" stroke="#231F20" stroke-miterlimit="10" x1="91.171" y1="87.962" x2="93.973" y2="87.962"/>
      <line fill="none" stroke="#231F20" stroke-miterlimit="10" x1="93.413" y1="87.962" x2="106.861" y2="67.888"/>
      <line fill="none" stroke="#231F20" stroke-miterlimit="10" x1="106.861" y1="68.473" x2="106.861" y2="47.405"/>
      <line fill="none" stroke="#231F20" stroke-miterlimit="10" x1="91.203" y1="103.108" x2="85.904" y2="103.108"/>
      <line fill="none" stroke="#231F20" stroke-miterlimit="10" x1="86.464" y1="103.108" x2="80.862" y2="95.134"/>
      <line fill="none" stroke="#231F20" stroke-miterlimit="10" x1="81.45" y1="95.134" x2="72.12" y2="95.134"/>
      <line fill="none" stroke="#231F20" stroke-miterlimit="10" x1="72.67" y1="95.134" x2="66.909" y2="88.648"/>
      <line fill="none" stroke="#231F20" stroke-miterlimit="10" x1="87.641" y1="114.409" x2="80.862" y2="114.409"/>
      <line fill="none" stroke="#231F20" stroke-miterlimit="10" x1="77.5" y1="110.151" x2="81.45" y2="114.409"/>
      <line fill="none" stroke="#231F20" stroke-miterlimit="10" x1="77.948" y1="110.151" x2="45.448" y2="110.151"/>
      <line fill="none" stroke="#231F20" stroke-miterlimit="10" x1="72.12" y1="114.409" x2="41.526" y2="114.409"/>
      <line fill="none" stroke="#231F20" stroke-miterlimit="10" x1="97.404" y1="120.012" x2="70.859" y2="119.968"/>
      <line fill="none" stroke="#231F20" stroke-miterlimit="10" x1="71.224" y1="120.012" x2="69.206" y2="117.099"/>
      <line fill="none" stroke="#231F20" stroke-miterlimit="10" x1="69.789" y1="117.099" x2="49.932" y2="117.099"/>
      <line fill="none" stroke="#231F20" stroke-miterlimit="10" x1="50.436" y1="117.099" x2="46.345" y2="122.029"/>
      <line fill="none" stroke="#231F20" stroke-miterlimit="10" x1="46.794" y1="122.029" x2="37.828" y2="122.029"/>
      <line fill="none" stroke="#231F20" stroke-miterlimit="10" x1="38.584" y1="122.029" x2="36.552" y2="119.968"/>
      <line fill="none" stroke="#231F20" stroke-miterlimit="10" x1="67.862" y1="120.292" x2="55.535" y2="120.292"/>
      <line fill="none" stroke="#231F20" stroke-miterlimit="10" x1="67.33" y1="120.292" x2="73.465" y2="126.512"/>
      <line fill="none" stroke="#231F20" stroke-miterlimit="10" x1="72.67" y1="126.512" x2="78.789" y2="126.512"/>
      <line fill="none" stroke="#231F20" stroke-miterlimit="10" x1="56.151" y1="120.012" x2="54.534" y2="122.029"/>
      <line fill="none" stroke="#231F20" stroke-miterlimit="10" x1="48.586" y1="128.978" x2="46.794" y2="131.892"/>
      <line fill="none" stroke="#231F20" stroke-miterlimit="10" x1="47.242" y1="131.892" x2="23.456" y2="131.892"/>
      <line fill="none" stroke="#231F20" stroke-miterlimit="10" x1="49.146" y1="139.957" x2="24.38" y2="139.957"/>
      <line fill="none" stroke="#231F20" stroke-miterlimit="10" x1="24.829" y1="139.957" x2="19.001" y2="148.25"/>
      <line fill="none" stroke="#231F20" stroke-miterlimit="10" x1="19.421" y1="148.25" x2="7.46" y2="148.25"/>
      <line fill="none" stroke="#231F20" stroke-miterlimit="10" x1="5.554" y1="153.629" x2="19.001" y2="153.629"/>
      <line fill="none" stroke="#231F20" stroke-miterlimit="10" x1="18.553" y1="153.629" x2="25.389" y2="162.818"/>
      <line fill="none" stroke="#231F20" stroke-miterlimit="10" x1="24.829" y1="162.818" x2="49.035" y2="162.818"/>
      <line fill="none" stroke="#231F20" stroke-miterlimit="10" x1="57.328" y1="166.848" x2="62.119" y2="170.659"/>
      <line fill="none" stroke="#231F20" stroke-miterlimit="10" x1="61.138" y1="170.659" x2="91.171" y2="170.659"/>
      <line fill="none" stroke="#231F20" stroke-miterlimit="10" x1="17.881" y1="160.797" x2="24.829" y2="170.659"/>
      <line fill="none" stroke="#231F20" stroke-miterlimit="10" x1="24.38" y1="170.659" x2="48.139" y2="170.659"/>
      <line fill="none" stroke="#231F20" stroke-miterlimit="10" x1="47.689" y1="170.659" x2="49.932" y2="174.244"/>
      <line fill="none" stroke="#231F20" stroke-miterlimit="10" x1="54.525" y1="181.203" x2="56.207" y2="182.986"/>
      <line fill="none" stroke="#231F20" stroke-miterlimit="10" x1="55.535" y1="182.986" x2="68.506" y2="182.986"/>
      <line fill="none" stroke="#231F20" stroke-miterlimit="10" x1="67.862" y1="182.986" x2="72.12" y2="176.934"/>
      <line fill="none" stroke="#231F20" stroke-miterlimit="10" x1="71.7" y1="176.934" x2="80.862" y2="176.934"/>
      <line fill="none" stroke="#231F20" stroke-miterlimit="10" x1="97.167" y1="182.986" x2="70.691" y2="182.986"/>
      <line fill="none" stroke="#231F20" stroke-miterlimit="10" x1="71.224" y1="182.986" x2="69.206" y2="185.452"/>
      <line fill="none" stroke="#231F20" stroke-miterlimit="10" x1="69.599" y1="185.563" x2="49.932" y2="185.452"/>
      <line fill="none" stroke="#231F20" stroke-miterlimit="10" x1="50.828" y1="185.452" x2="45.056" y2="179.959"/>
      <line fill="none" stroke="#231F20" stroke-miterlimit="10" x1="45.448" y1="179.959" x2="39.173" y2="179.959"/>
      <line fill="none" stroke="#231F20" stroke-miterlimit="10" x1="39.677" y1="180.073" x2="36.036" y2="182.705"/>
      <line fill="none" stroke="#231F20" stroke-miterlimit="10" x1="36.483" y1="182.705" x2="27.238" y2="182.705"/>
      <line fill="none" stroke="#231F20" stroke-miterlimit="10" x1="88.818" y1="187.244" x2="80.862" y2="187.244"/>
      <line fill="none" stroke="#231F20" stroke-miterlimit="10" x1="81.45" y1="187.244" x2="77.583" y2="191.055"/>
      <line fill="none" stroke="#231F20" stroke-miterlimit="10" x1="77.948" y1="191.055" x2="36.036" y2="191.055"/>
      <line fill="none" stroke="#231F20" stroke-miterlimit="10" x1="72.12" y1="187.691" x2="32.954" y2="187.691"/>
      <line fill="none" stroke="#231F20" stroke-miterlimit="10" x1="39.173" y1="193.969" x2="70.214" y2="193.969"/>
      <line fill="none" stroke="#231F20" stroke-miterlimit="10" x1="69.599" y1="193.969" x2="77.948" y2="203.382"/>
      <line fill="none" stroke="#231F20" stroke-miterlimit="10" x1="77.164" y1="203.382" x2="99.016" y2="203.382"/>
      <line fill="none" stroke="#231F20" stroke-miterlimit="10" x1="98.512" y1="203.382" x2="103.05" y2="198.675"/>
      <line fill="none" stroke="#231F20" stroke-miterlimit="10" x1="112.016" y1="197.33" x2="104.815" y2="206.52"/>
      <line fill="none" stroke="#231F20" stroke-miterlimit="10" x1="105.74" y1="206.52" x2="76.491" y2="206.52"/>
      <line fill="none" stroke="#231F20" stroke-miterlimit="10" x1="77.164" y1="206.52" x2="68.842" y2="197.33"/>
      <line fill="none" stroke="#231F20" stroke-miterlimit="10" x1="69.206" y1="197.33" x2="42.787" y2="197.33"/>
      <line fill="none" stroke="#231F20" stroke-miterlimit="10" x1="27.966" y1="135.938" x2="35.139" y2="135.938"/>
      <line fill="none" stroke="#231F20" stroke-miterlimit="10" x1="38.053" y1="135.938" x2="43.946" y2="135.938"/>
      <line fill="none" stroke="#231F20" stroke-miterlimit="10" x1="27.966" y1="166.848" x2="34.354" y2="166.848"/>
      <line fill="none" stroke="#231F20" stroke-miterlimit="10" x1="37.717" y1="166.848" x2="43.946" y2="166.848"/>
      <line fill="none" stroke="#231F20" stroke-miterlimit="10" x1="168.049" y1="100.711" x2="168.049" y2="106.199"/>
      <line fill="none" stroke="#231F20" stroke-miterlimit="10" x1="189.79" y1="100.711" x2="189.79" y2="110.165"/>
      <line fill="none" stroke="#231F20" stroke-miterlimit="10" x1="205.086" y1="99.659" x2="201.25" y2="105.438"/>
      <line fill="none" stroke="#231F20" stroke-miterlimit="10" x1="201.808" y1="105.438" x2="198.113" y2="105.438"/>
      <line fill="none" stroke="#231F20" stroke-miterlimit="10" x1="233.944" y1="111.51" x2="207.496" y2="111.51"/>
      <line fill="none" stroke="#231F20" stroke-miterlimit="10" x1="208.028" y1="111.51" x2="205.086" y2="113.303"/>
      <line fill="none" stroke="#231F20" stroke-miterlimit="10" x1="205.479" y1="113.303" x2="197.409" y2="113.303"/>
      <line fill="none" stroke="#231F20" stroke-miterlimit="10" x1="237.08" y1="114.424" x2="214.052" y2="114.424"/>
      <line fill="none" stroke="#231F20" stroke-miterlimit="10" x1="246.029" y1="122.94" x2="239.771" y2="122.94"/>
      <line fill="none" stroke="#231F20" stroke-miterlimit="10" x1="240.387" y1="122.771" x2="233.27" y2="116.665"/>
      <line fill="none" stroke="#231F20" stroke-miterlimit="10" x1="233.943" y1="116.889" x2="216.461" y2="116.889"/>
      <line fill="none" stroke="#231F20" stroke-miterlimit="10" x1="217.021" y1="116.889" x2="212.371" y2="119.915"/>
      <line fill="none" stroke="#231F20" stroke-miterlimit="10" x1="212.875" y1="119.915" x2="187.547" y2="119.915"/>
      <line fill="none" stroke="#231F20" stroke-miterlimit="10" x1="217.582" y1="119.915" x2="229.013" y2="119.915"/>
      <line fill="none" stroke="#231F20" stroke-miterlimit="10" x1="228.284" y1="119.915" x2="230.133" y2="121.596"/>
      <line fill="none" stroke="#231F20" stroke-miterlimit="10" x1="218.029" y1="119.915" x2="212.371" y2="125.629"/>
      <line fill="none" stroke="#231F20" stroke-miterlimit="10" x1="212.875" y1="125.629" x2="203.909" y2="125.629"/>
      <line fill="none" stroke="#231F20" stroke-miterlimit="10" x1="235.512" y1="129.44" x2="238.537" y2="131.905"/>
      <line fill="none" stroke="#231F20" stroke-miterlimit="10" x1="238.09" y1="131.905" x2="255.432" y2="131.905"/>
      <line fill="none" stroke="#231F20" stroke-miterlimit="10" x1="255.432" y1="136.612" x2="249.855" y2="136.612"/>
      <line fill="none" stroke="#231F20" stroke-miterlimit="10" x1="246.271" y1="136.612" x2="241.452" y2="136.612"/>
      <line fill="none" stroke="#231F20" stroke-miterlimit="10" x1="271.737" y1="148.715" x2="266.217" y2="148.715"/>
      <line fill="none" stroke="#231F20" stroke-miterlimit="10" x1="266.694" y1="148.715" x2="259.494" y2="139.975"/>
      <line fill="none" stroke="#231F20" stroke-miterlimit="10" x1="260.139" y1="139.975" x2="235.624" y2="139.975"/>
      <line fill="none" stroke="#231F20" stroke-miterlimit="10" x1="273.755" y1="153.87" x2="266.217" y2="153.87"/>
      <line fill="none" stroke="#231F20" stroke-miterlimit="10" x1="267.114" y1="153.87" x2="260.643" y2="161.939"/>
      <line fill="none" stroke="#231F20" stroke-miterlimit="10" x1="261.288" y1="161.939" x2="236.016" y2="161.939"/>
      <line fill="none" stroke="#231F20" stroke-miterlimit="10" x1="255.573" y1="166.848" x2="249.073" y2="166.848"/>
      <line fill="none" stroke="#231F20" stroke-miterlimit="10" x1="245.486" y1="166.848" x2="241.452" y2="166.848"/>
      <line fill="none" stroke="#231F20" stroke-miterlimit="10" x1="228.616" y1="167.881" x2="225.763" y2="171.129"/>
      <line fill="none" stroke="#231F20" stroke-miterlimit="10" x1="226.323" y1="171.129" x2="195.84" y2="171.129"/>
      <line fill="none" stroke="#231F20" stroke-miterlimit="10" x1="260.643" y1="172.025" x2="236.857" y2="172.025"/>
      <line fill="none" stroke="#231F20" stroke-miterlimit="10" x1="251.482" y1="181.242" x2="247.839" y2="178.525"/>
      <line fill="none" stroke="#231F20" stroke-miterlimit="10" x1="248.287" y1="178.525" x2="239.771" y2="178.525"/>
      <line fill="none" stroke="#231F20" stroke-miterlimit="10" x1="240.387" y1="178.539" x2="234.335" y2="185.024"/>
      <line fill="none" stroke="#231F20" stroke-miterlimit="10" x1="234.951" y1="185.024" x2="215.229" y2="185.024"/>
      <line fill="none" stroke="#231F20" stroke-miterlimit="10" x1="216.096" y1="185.024" x2="212.371" y2="181.242"/>
      <line fill="none" stroke="#231F20" stroke-miterlimit="10" x1="212.875" y1="181.242" x2="187.547" y2="181.242"/>
      <line fill="none" stroke="#231F20" stroke-miterlimit="10" x1="204.693" y1="175.836" x2="212.875" y2="175.836"/>
      <line fill="none" stroke="#231F20" stroke-miterlimit="10" x1="212.371" y1="175.836" x2="216.938" y2="181.242"/>
      <line fill="none" stroke="#231F20" stroke-miterlimit="10" x1="216.461" y1="181.242" x2="229.013" y2="181.242"/>
      <line fill="none" stroke="#231F20" stroke-miterlimit="10" x1="228.291" y1="181.679" x2="230.307" y2="179.646"/>
      <line fill="none" stroke="#231F20" stroke-miterlimit="10" x1="197.409" y1="187.26" x2="203.402" y2="187.244"/>
      <line fill="none" stroke="#231F20" stroke-miterlimit="10" x1="203.012" y1="186.901" x2="207.496" y2="190.847"/>
      <line fill="none" stroke="#231F20" stroke-miterlimit="10" x1="206.935" y1="190.847" x2="242.32" y2="190.847"/>
      <line fill="none" stroke="#231F20" stroke-miterlimit="10" x1="246.271" y1="187.26" x2="214.052" y2="187.26"/>
      <line fill="none" stroke="#231F20" stroke-miterlimit="10" x1="238.537" y1="194.773" x2="215.229" y2="194.773"/>
      <line fill="none" stroke="#231F20" stroke-miterlimit="10" x1="215.592" y1="194.773" x2="209.121" y2="201.925"/>
      <line fill="none" stroke="#231F20" stroke-miterlimit="10" x1="209.513" y1="201.925" x2="185.53" y2="201.925"/>
      <line fill="none" stroke="#231F20" stroke-miterlimit="10" x1="185.923" y1="201.925" x2="182.169" y2="198.35"/>
      <line fill="none" stroke="#231F20" stroke-miterlimit="10" x1="235.512" y1="197.778" x2="217.582" y2="197.778"/>
      <line fill="none" stroke="#231F20" stroke-miterlimit="10" x1="218.366" y1="197.778" x2="210.213" y2="206.52"/>
      <line fill="none" stroke="#231F20" stroke-miterlimit="10" x1="211.083" y1="206.52" x2="182.169" y2="206.52"/>
      <line fill="none" stroke="#231F20" stroke-miterlimit="10" x1="182.897" y1="206.52" x2="174.772" y2="198.35"/>
      <line fill="none" stroke="#231F20" stroke-miterlimit="10" x1="214.332" y1="218.411" x2="183.85" y2="218.411"/>
      <line fill="none" stroke="#231F20" stroke-miterlimit="10" x1="184.495" y1="218.411" x2="177.731" y2="209.729"/>
      <line fill="none" stroke="#231F20" stroke-miterlimit="10" x1="211.726" y1="221.101" x2="178.47" y2="221.101"/>
      <line fill="none" stroke="#231F20" stroke-miterlimit="10" x1="179.215" y1="221.101" x2="176.454" y2="218.066"/>
      <line fill="none" stroke="#231F20" stroke-miterlimit="10" x1="205.674" y1="227.377" x2="174.772" y2="227.377"/>
      <line fill="none" stroke="#231F20" stroke-miterlimit="10" x1="175.385" y1="227.377" x2="168.049" y2="217.066"/>
      <line fill="none" stroke="#231F20" stroke-miterlimit="10" x1="168.499" y1="217.066" x2="164.014" y2="217.066"/>
      <line fill="none" stroke="#231F20" stroke-miterlimit="10" x1="200.043" y1="233.428" x2="185.53" y2="233.428"/>
      <line fill="none" stroke="#231F20" stroke-miterlimit="10" x1="179.359" y1="234.805" x2="171.41" y2="246.661"/>
      <line fill="none" stroke="#231F20" stroke-miterlimit="10" x1="171.41" y1="246.204" x2="171.41" y2="262.372"/>
      <line fill="none" stroke="#231F20" stroke-miterlimit="10" x1="173.876" y1="235.23" x2="164.91" y2="247.885"/>
      <line fill="none" stroke="#231F20" stroke-miterlimit="10" x1="164.91" y1="247.323" x2="164.91" y2="268.598"/>
      <line fill="none" stroke="#231F20" stroke-miterlimit="10" x1="168.499" y1="233.164" x2="157.739" y2="251.031"/>
      <line fill="none" stroke="#231F20" stroke-miterlimit="10" x1="157.739" y1="250.687" x2="157.739" y2="276.414"/>
      <line fill="none" stroke="#231F20" stroke-miterlimit="10" x1="159.755" y1="235.108" x2="159.755" y2="244.187"/>
      <line fill="none" stroke="#231F20" stroke-miterlimit="10" x1="159.755" y1="243.289" x2="154.6" y2="249.002"/>
      <line fill="none" stroke="#231F20" stroke-miterlimit="10" x1="154.6" y1="248.334" x2="154.6" y2="280.28"/>
      <line fill="none" stroke="#231F20" stroke-miterlimit="10" x1="155.61" y1="236.79" x2="151.462" y2="243.635"/>
      <line fill="none" stroke="#231F20" stroke-miterlimit="10" x1="151.462" y1="243.289" x2="151.462" y2="282.634"/>
      <line fill="none" stroke="#231F20" stroke-miterlimit="10" x1="147.681" y1="249.763" x2="147.681" y2="258.008"/>
      <line fill="none" stroke="#231F20" stroke-miterlimit="10" x1="147.681" y1="257.419" x2="144.964" y2="261.454"/>
      <line fill="none" stroke="#231F20" stroke-miterlimit="10" x1="144.964" y1="261.107" x2="144.964" y2="287.256"/>
      <line fill="none" stroke="#231F20" stroke-miterlimit="10" x1="139.437" y1="288.411" x2="139.437" y2="261.107"/>
      <line fill="none" stroke="#231F20" stroke-miterlimit="10" x1="139.437" y1="261.107" x2="137.941" y2="257.406"/>
      <line fill="none" stroke="#231F20" stroke-miterlimit="10" x1="137.941" y1="257.406" x2="137.941" y2="249.002"/>
      <line fill="none" stroke="#231F20" stroke-miterlimit="10" x1="129.05" y1="236.907" x2="133.98" y2="242.957"/>
      <line fill="none" stroke="#231F20" stroke-miterlimit="10" x1="133.98" y1="242.393" x2="133.98" y2="286.099"/>
      <line fill="none" stroke="#231F20" stroke-miterlimit="10" x1="125.462" y1="234.324" x2="125.462" y2="244.187"/>
      <line fill="none" stroke="#231F20" stroke-miterlimit="10" x1="125.462" y1="244.187" x2="129.497" y2="251.031"/>
      <line fill="none" stroke="#231F20" stroke-miterlimit="10" x1="129.497" y1="250.687" x2="129.497" y2="282.634"/>
      <line fill="none" stroke="#231F20" stroke-miterlimit="10" x1="115.041" y1="233.428" x2="125.462" y2="250.191"/>
      <line fill="none" stroke="#231F20" stroke-miterlimit="10" x1="125.462" y1="249.789" x2="125.462" y2="278.431"/>
      <line fill="none" stroke="#231F20" stroke-miterlimit="10" x1="112.016" y1="235.23" x2="118.066" y2="244.644"/>
      <line fill="none" stroke="#231F20" stroke-miterlimit="10" x1="118.066" y1="244.187" x2="118.066" y2="270.867"/>
      <path fill="none" stroke="#231F20" stroke-miterlimit="10" d="M122.55,277.582"/>
      <line fill="none" stroke="#231F20" stroke-miterlimit="10" x1="108.877" y1="239.255" x2="113.913" y2="246.661"/>
      <line fill="none" stroke="#231F20" stroke-miterlimit="10" x1="113.913" y1="246.204" x2="113.913" y2="266.581"/>
      <circle fill="#231F20" stroke="#231F20" stroke-miterlimit="10" cx="89.592" cy="87.962" r="1.503"/>
      <circle fill="none" stroke="#231F20" stroke-miterlimit="10" cx="116.863" cy="106.199" r="1.503"/>
      <circle fill="#231F20" stroke="#231F20" stroke-miterlimit="10" cx="126.198" cy="47.405" r="1.502"/>
      <circle fill="#231F20" stroke="#231F20" stroke-miterlimit="10" cx="159.083" cy="48.907" r="1.502"/>
      <circle fill="#231F20" stroke="#231F20" stroke-miterlimit="10" cx="80.862" cy="126.512" r="1.503"/>
      <circle fill="#231F20" stroke="#231F20" stroke-miterlimit="10" cx="96.55" cy="63.996" r="1.502"/>
      <circle fill="#231F20" stroke="#231F20" stroke-miterlimit="10" cx="45.449" cy="166.848" r="1.502"/>
      <circle fill="#231F20" stroke="#231F20" stroke-miterlimit="10" cx="99.016" cy="182.986" r="1.502"/>
      <circle fill="#231F20" stroke="#231F20" stroke-miterlimit="10" cx="72.849" cy="187.469" r="1.502"/>
      <circle fill="none" stroke="#231F20" stroke-miterlimit="10" cx="112.41" cy="196.275" r="1.502"/>
      <circle fill="none" stroke="#231F20" stroke-miterlimit="10" cx="118.366" cy="77.061" r="1.502"/>
      <circle fill="none" stroke="#231F20" stroke-miterlimit="10" cx="50.828" cy="140.085" r="1.681"/>
      <circle fill="none" stroke="#231F20" stroke-miterlimit="10" cx="99.016" cy="119.563" r="1.681"/>
      <circle fill="none" stroke="#231F20" stroke-miterlimit="10" cx="89.592" cy="114.409" r="1.681"/>
      <circle fill="none" stroke="#231F20" stroke-miterlimit="10" cx="92.292" cy="102.643" r="1.681"/>
      <circle fill="none" stroke="#231F20" stroke-miterlimit="10" cx="106.076" cy="94.785" r="1.681"/>
      <circle fill="none" stroke="#231F20" stroke-miterlimit="10" cx="108.877" cy="90.329" r="1.681"/>
      <circle fill="none" stroke="#231F20" stroke-miterlimit="10" cx="115.361" cy="81.501" r="1.681"/>
      <circle fill="#231F20" stroke="#231F20" stroke-miterlimit="10" cx="112.016" cy="86.071" r="1.681"/>
      <circle fill="#231F20" stroke="#231F20" stroke-miterlimit="10" cx="103.051" cy="98.889" r="1.681"/>
      <circle fill="none" stroke="#231F20" stroke-miterlimit="10" cx="127.543" cy="90.998" r="1.681"/>
      <circle fill="none" stroke="#231F20" stroke-miterlimit="10" cx="138.922" cy="79.82" r="1.681"/>
      <circle fill="none" stroke="#231F20" stroke-miterlimit="10" cx="147.316" cy="79.82" r="1.681"/>
      <circle fill="none" stroke="#231F20" stroke-miterlimit="10" cx="133.308" cy="33.957" r="1.681"/>
      <circle fill="none" stroke="#231F20" stroke-miterlimit="10" cx="49.147" cy="128.014" r="1.681"/>
      <circle fill="none" stroke="#231F20" stroke-miterlimit="10" cx="53.742" cy="123.402" r="1.681"/>
      <circle fill="none" stroke="#231F20" stroke-miterlimit="10" cx="36.372" cy="135.938" r="1.681"/>
      <circle fill="none" stroke="#231F20" stroke-miterlimit="10" cx="45.448" cy="135.938" r="1.681"/>
      <circle fill="none" stroke="#231F20" stroke-miterlimit="10" cx="26.51" cy="135.938" r="1.681"/>
      <circle fill="none" stroke="#231F20" stroke-miterlimit="10" cx="16.872" cy="159.115" r="1.681"/>
      <circle fill="none" stroke="#231F20" stroke-miterlimit="10" cx="50.828" cy="162.818" r="1.681"/>
      <circle fill="none" stroke="#231F20" stroke-miterlimit="10" cx="56.207" cy="165.728" r="1.681"/>
      <circle fill="none" stroke="#231F20" stroke-miterlimit="10" cx="92.292" cy="170.659" r="1.681"/>
      <circle fill="none" stroke="#231F20" stroke-miterlimit="10" cx="82.364" cy="176.934" r="1.681"/>
      <circle fill="none" stroke="#231F20" stroke-miterlimit="10" cx="53.742" cy="180.073" r="1.681"/>
      <circle fill="none" stroke="#231F20" stroke-miterlimit="10" cx="50.828" cy="175.252" r="1.681"/>
      <circle fill="none" stroke="#231F20" stroke-miterlimit="10" cx="26.51" cy="166.848" r="1.681"/>
      <circle fill="none" stroke="#231F20" stroke-miterlimit="10" cx="36.036" cy="166.848" r="1.681"/>
      <circle fill="none" stroke="#231F20" stroke-miterlimit="10" cx="90.611" cy="187.244" r="1.681"/>
      <circle fill="none" stroke="#231F20" stroke-miterlimit="10" cx="104.059" cy="197.33" r="1.681"/>
      <circle fill="none" stroke="#231F20" stroke-miterlimit="10" cx="74.351" cy="114.409" r="1.681"/>
      <circle fill="none" stroke="#231F20" stroke-miterlimit="10" cx="195.841" cy="113.303" r="1.68"/>
      <circle fill="none" stroke="#231F20" stroke-miterlimit="10" cx="185.531" cy="119.915" r="1.68"/>
      <circle fill="none" stroke="#231F20" stroke-miterlimit="10" cx="189.789" cy="111.51" r="1.681"/>
      <circle fill="none" stroke="#231F20" stroke-miterlimit="10" cx="195.841" cy="105.438" r="1.68"/>
      <circle fill="none" stroke="#231F20" stroke-miterlimit="10" cx="194.159" cy="171.129" r="1.681"/>
      <circle fill="none" stroke="#231F20" stroke-miterlimit="10" cx="234.335" cy="161.939" r="1.681"/>
      <circle fill="none" stroke="#231F20" stroke-miterlimit="10" cx="229.012" cy="166.643" r="1.681"/>
      <circle fill="none" stroke="#231F20" stroke-miterlimit="10" cx="234.335" cy="128.014" r="1.681"/>
      <circle fill="none" stroke="#231F20" stroke-miterlimit="10" cx="231.03" cy="122.94" r="1.681"/>
      <circle fill="none" stroke="#231F20" stroke-miterlimit="10" cx="233.943" cy="139.975" r="1.681"/>
      <circle fill="none" stroke="#231F20" stroke-miterlimit="10" cx="239.771" cy="136.612" r="1.681"/>
      <circle fill="none" stroke="#231F20" stroke-miterlimit="10" cx="248.175" cy="136.612" r="1.681"/>
      <circle fill="none" stroke="#231F20" stroke-miterlimit="10" cx="256.693" cy="136.612" r="1.681"/>
      <circle fill="none" stroke="#231F20" stroke-miterlimit="10" cx="212.371" cy="114.984" r="1.681"/>
      <circle fill="none" stroke="#231F20" stroke-miterlimit="10" cx="247.84" cy="166.848" r="1.681"/>
      <circle fill="none" stroke="#231F20" stroke-miterlimit="10" cx="256.693" cy="166.848" r="1.681"/>
      <circle fill="none" stroke="#231F20" stroke-miterlimit="10" cx="203.012" cy="175.836" r="1.681"/>
      <circle fill="none" stroke="#231F20" stroke-miterlimit="10" cx="195.841" cy="187.244" r="1.68"/>
      <circle fill="none" stroke="#231F20" stroke-miterlimit="10" cx="180.796" cy="197.33" r="1.681"/>
      <circle fill="none" stroke="#231F20" stroke-miterlimit="10" cx="176.789" cy="208.998" r="1.681"/>
      <circle fill="none" stroke="#231F20" stroke-miterlimit="10" cx="175.11" cy="217.066" r="1.681"/>
      <circle fill="none" stroke="#231F20" stroke-miterlimit="10" cx="159.756" cy="233.428" r="1.68"/>
      <circle fill="none" stroke="#231F20" stroke-miterlimit="10" cx="125.463" cy="232.643" r="1.681"/>
      <circle fill="none" stroke="#231F20" stroke-miterlimit="10" cx="234.951" cy="172.025" r="1.681"/>
      <circle fill="none" stroke="#231F20" stroke-miterlimit="10" cx="231.03" cy="178.539" r="1.681"/>
      <circle fill="#231F20" stroke="#231F20" stroke-miterlimit="10" cx="185.531" cy="233.428" r="1.68"/>
      <circle fill="none" stroke="#231F20" stroke-miterlimit="10" cx="180.32" cy="233.428" r="1.681"/>
      <circle fill="none" stroke="#231F20" stroke-miterlimit="10" cx="174.772" cy="233.428" r="1.68"/>
      <circle fill="none" stroke="#231F20" stroke-miterlimit="10" cx="147.68" cy="247.885" r="1.681"/>
      <circle fill="none" stroke="#231F20" stroke-miterlimit="10" cx="137.941" cy="247.885" r="1.68"/>
      <circle fill="#231F20" stroke="#231F20" stroke-miterlimit="10" cx="168.047" cy="106.199" r="1.681"/>
      <circle fill="#231F20" stroke="#231F20" stroke-miterlimit="10" cx="203.012" cy="125.629" r="1.681"/>
      <circle fill="#231F20" stroke="#231F20" stroke-miterlimit="10" cx="185.531" cy="181.482" r="1.681"/>
      <circle fill="#231F20" stroke="#231F20" stroke-miterlimit="10" cx="212.371" cy="187.244" r="1.681"/>
      <circle fill="#231F20" stroke="#231F20" stroke-miterlimit="10" cx="163.566" cy="217.066" r="1.68"/>
      <circle fill="#231F20" stroke="#231F20" stroke-miterlimit="10" cx="173.876" cy="197.33" r="1.68"/>
      <circle fill="#231F20" stroke="#231F20" stroke-miterlimit="10" cx="155.61" cy="236.79" r="1.681"/>
      <path fill="#231F20" stroke="#231F20" stroke-miterlimit="10" d="M167.713,231.748c0-0.931,0.753-1.682,1.681-1.682
			c0.93,0,1.681,0.751,1.681,1.682c0,0.926-0.751,1.68-1.681,1.68C168.466,233.428,167.713,232.674,167.713,231.748z"/>
      <circle fill="#231F20" stroke="#231F20" stroke-miterlimit="10" cx="129.497" cy="236.79" r="1.681"/>
      <circle fill="#231F20" stroke="#231F20" stroke-miterlimit="10" cx="239.141" cy="166.848" r="1.681"/>
      <line fill="none" stroke="#231F20" stroke-miterlimit="10" x1="172.756" y1="50.41" x2="172.756" y2="63.523"/>
      <line fill="none" stroke="#231F20" stroke-miterlimit="10" x1="164.91" y1="42.548" x2="164.91" y2="52.56"/>
      <line fill="none" stroke="#231F20" stroke-miterlimit="10" x1="164.91" y1="51.89" x2="161.771" y2="56.514"/>
      <line fill="none" stroke="#231F20" stroke-miterlimit="10" x1="161.771" y1="55.697" x2="161.771" y2="75.421"/>
      <line fill="none" stroke="#231F20" stroke-miterlimit="10" x1="159.083" y1="36.538" x2="159.083" y2="47.405"/>
      <line fill="none" stroke="#231F20" stroke-miterlimit="10" x1="156.826" y1="34.645" x2="151.182" y2="40.289"/>
      <line fill="none" stroke="#231F20" stroke-miterlimit="10" x1="151.182" y1="39.676" x2="151.182" y2="74.301"/>
      <line fill="none" stroke="#231F20" stroke-miterlimit="10" x1="151.182" y1="73.631" x2="156.701" y2="79.82"/>
      <line fill="none" stroke="#231F20" stroke-miterlimit="10" x1="142.946" y1="20.064" x2="142.946" y2="50.431"/>
      <line fill="none" stroke="#231F20" stroke-miterlimit="10" x1="142.946" y1="48.974" x2="147.316" y2="53.852"/>
      <line fill="none" stroke="#231F20" stroke-miterlimit="10" x1="142.946" y1="48.974" x2="138.923" y2="53.344"/>
      <line fill="none" stroke="#231F20" stroke-miterlimit="10" x1="138.923" y1="52.998" x2="138.923" y2="78.139"/>
      <line fill="none" stroke="#231F20" stroke-miterlimit="10" x1="147.316" y1="53.344" x2="147.316" y2="78.139"/>
      <line fill="none" stroke="#231F20" stroke-miterlimit="10" x1="133.308" y1="20.064" x2="133.308" y2="31.94"/>
      <line fill="none" stroke="#231F20" stroke-miterlimit="10" x1="129.497" y1="24.854" x2="129.497" y2="37.124"/>
      <line fill="none" stroke="#231F20" stroke-miterlimit="10" x1="129.497" y1="36.538" x2="132.985" y2="41.244"/>
      <line fill="none" stroke="#231F20" stroke-miterlimit="10" x1="132.985" y1="40.611" x2="132.985" y2="76.125"/>
      <line fill="none" stroke="#231F20" stroke-miterlimit="10" x1="132.985" y1="75.421" x2="127.543" y2="81.921"/>
      <line fill="none" stroke="#231F20" stroke-miterlimit="10" x1="127.543" y1="81.501" x2="127.543" y2="89.317"/>
      <line fill="none" stroke="#231F20" stroke-miterlimit="10" x1="126.198" y1="28.301" x2="126.198" y2="45.902"/>
      <line fill="none" stroke="#231F20" stroke-miterlimit="10" x1="120.756" y1="33.345" x2="120.756" y2="52.56"/>
      <line fill="none" stroke="#231F20" stroke-miterlimit="10" x1="120.756" y1="51.89" x2="124.468" y2="56.272"/>
      <line fill="none" stroke="#231F20" stroke-miterlimit="10" x1="124.468" y1="55.376" x2="124.468" y2="89.766"/>
      <line fill="none" stroke="#231F20" stroke-miterlimit="10" x1="124.244" y1="89.334" x2="116.706" y2="96.875"/>
      <line fill="none" stroke="#231F20" stroke-miterlimit="10" x1="117.042" y1="96.538" x2="116.864" y2="104.696"/>
      <line fill="none" stroke="#231F20" stroke-miterlimit="10" x1="100.519" y1="54.417" x2="100.519" y2="58.388"/>
      <line fill="none" stroke="#231F20" stroke-miterlimit="10" x1="100.519" y1="57.55" x2="97.033" y2="63.466"/>
    </g>
  </mask>
  <g id="Layer_2" mask="url(#Layer_1)">
    <path fill="#FFFFFF" d="M88.13,151.304c0,0-1.917,1.724-1.945,3.015c-0.028,1.293,1.569,3.082,1.569,3.082l51.516,51.531
		c0,0-77.516,0.784-81.942-0.43c-4.426-1.213-48.999-46.334-49.781-47.907c-3.674-7.397,0.35-11.431,0.35-11.431l129.12-130.656
		c0,0,0.817-0.929,1.3-0.863c0.612,0.083,2.388,1.635,2.388,1.635l39.419,39.783L88.13,151.304z"/>
    <path fill="#FFFFFF" d="M100.865,250.863c-0.084,3.11,6.629,8.502,6.629,8.502l18.743,18.915c0,0,8.028,9.121,14.356,9.452
		c6.327,0.332,17.356-12.842,17.356-12.842l113.068-114.412c0,0,4.023-4.034,0.349-11.431c-0.598-1.202-28.931-28.766-42.283-41.72
		c-4.129-4.006-5.709-5.77-7.227-6.256c-1.518-0.486-13.746-0.36-13.746-0.36h-68.466l50.552,50.566c0,0,2.756,2.365,2.787,3.824
		c0.03,1.461-2.48,3.518-2.48,3.518l-82.278,82.499C108.225,241.118,100.949,247.753,100.865,250.863z"/>
  </g>
  <g id="Layer_3" display="none">
    <line display="inline" fill="none" stroke="#231F20" stroke-miterlimit="10" x1="571.333" y1="13.814" x2="571.333" y2="22.317"/>
    <line display="inline" fill="none" stroke="#231F20" stroke-miterlimit="10" x1="565.5" y1="7.583" x2="565.5" y2="14.165"/>
    <line display="inline" fill="none" stroke="#231F20" stroke-miterlimit="10" x1="565.5" y1="14.165" x2="563.166" y2="16.498"/>
    <line display="inline" fill="none" stroke="#231F20" stroke-miterlimit="10" x1="563.166" y1="16.498" x2="563.166" y2="31.165"/>
    <line display="inline" fill="none" stroke="#231F20" stroke-miterlimit="10" x1="561.167" y1="3.108" x2="561.167" y2="10.331"/>
    <line display="inline" fill="none" stroke="#231F20" stroke-miterlimit="10" x1="559.153" y1="1.178" x2="555.291" y2="5.04"/>
    <line display="inline" fill="none" stroke="#231F20" stroke-miterlimit="10" x1="555.291" y1="5.04" x2="555.291" y2="30.331"/>
    <line display="inline" fill="none" stroke="#231F20" stroke-miterlimit="10" x1="555.291" y1="30.331" x2="559.396" y2="34.436"/>
    <line display="inline" fill="none" stroke="#231F20" stroke-miterlimit="10" x1="549.167" y1="-8.919" x2="549.167" y2="12.581"/>
    <line display="inline" fill="none" stroke="#231F20" stroke-miterlimit="10" x1="549.167" y1="11.498" x2="552.417" y2="14.748"/>
    <line display="inline" fill="none" stroke="#231F20" stroke-miterlimit="10" x1="549.167" y1="11.498" x2="546.175" y2="14.49"/>
    <line display="inline" fill="none" stroke="#231F20" stroke-miterlimit="10" x1="546.175" y1="14.49" x2="546.175" y2="33.186"/>
    <line display="inline" fill="none" stroke="#231F20" stroke-miterlimit="10" x1="552.417" y1="14.748" x2="552.417" y2="33.186"/>
    <line display="inline" fill="none" stroke="#231F20" stroke-miterlimit="10" x1="542" y1="-8.367" x2="542" y2="-1.169"/>
    <line display="inline" fill="none" stroke="#231F20" stroke-miterlimit="10" x1="539.167" y1="-5.5" x2="539.167" y2="2.686"/>
    <line display="inline" fill="none" stroke="#231F20" stroke-miterlimit="10" x1="539.167" y1="2.686" x2="541.76" y2="5.279"/>
    <line display="inline" fill="none" stroke="#231F20" stroke-miterlimit="10" x1="541.76" y1="5.279" x2="541.76" y2="31.165"/>
    <line display="inline" fill="none" stroke="#231F20" stroke-miterlimit="10" x1="541.76" y1="31.165" x2="537.713" y2="35.998"/>
    <line display="inline" fill="none" stroke="#231F20" stroke-miterlimit="10" x1="537.713" y1="35.998" x2="537.713" y2="41.498"/>
    <line display="inline" fill="none" stroke="#231F20" stroke-miterlimit="10" x1="536.713" y1="-3.103" x2="536.713" y2="9.214"/>
    <line display="inline" fill="none" stroke="#231F20" stroke-miterlimit="10" x1="532.667" y1="1.078" x2="532.667" y2="14.165"/>
    <line display="inline" fill="none" stroke="#231F20" stroke-miterlimit="10" x1="532.667" y1="14.165" x2="535.427" y2="16.925"/>
    <line display="inline" fill="none" stroke="#231F20" stroke-miterlimit="10" x1="535.427" y1="16.258" x2="535.427" y2="41.831"/>
    <line display="inline" fill="none" stroke="#231F20" stroke-miterlimit="10" x1="535.26" y1="41.51" x2="529.654" y2="47.117"/>
    <line display="inline" fill="none" stroke="#231F20" stroke-miterlimit="10" x1="529.904" y1="46.867" x2="529.771" y2="52.934"/>
    <line display="inline" fill="none" stroke="#231F20" stroke-miterlimit="10" x1="517.617" y1="16.748" x2="517.617" y2="18.498"/>
    <line display="inline" fill="none" stroke="#231F20" stroke-miterlimit="10" x1="517.617" y1="18.498" x2="515.025" y2="22.274"/>
  </g>
  <g id="Layer_4">
    <g>
      <rect x="285.667" y="85.827" fill="none" width="768.667" height="157.333"/>
      <path fill="#FFFFFF" d="M318.378,230.585c-4.136,0-7.928-1.002-11.374-3.008c-3.449-2.004-6.174-4.729-8.178-8.178
			c-2.006-3.446-3.008-7.238-3.008-11.374v-90.24c0-4.136,1.002-7.926,3.008-11.374c2.003-3.446,4.729-6.172,8.178-8.178
			c3.446-2.004,7.238-3.009,11.374-3.009h90.24c4.136,0,7.925,1.005,11.374,3.009c3.445,2.006,6.171,4.731,8.178,8.178
			c2.003,3.448,3.008,7.238,3.008,11.374v90.24c0,4.136-1.005,7.928-3.008,11.374c-2.006,3.448-4.732,6.174-8.178,8.178
			c-3.449,2.006-7.238,3.008-11.374,3.008H318.378z M318.378,215.357h90.24c2.003,0,3.728-0.72,5.17-2.162
			c1.439-1.439,2.162-3.164,2.162-5.17v-90.24c0-2.004-0.723-3.728-2.162-5.17c-1.442-1.439-3.167-2.162-5.17-2.162h-90.24
			c-2.006,0-3.73,0.723-5.17,2.162c-1.442,1.442-2.162,3.166-2.162,5.17v90.24c0,2.006,0.72,3.73,2.162,5.17
			C314.648,214.638,316.372,215.357,318.378,215.357z"/>
      <path fill="#FFFFFF" d="M451.856,230.585V95.225h20.868l99.264,118.064V95.225h15.227v135.36h-20.867l-99.264-118.064v118.064
			H451.856z"/>
      <path fill="#FFFFFF" d="M661.662,230.585V110.453h-60.16V95.225h135.359v15.229h-59.971v120.132H661.662z"/>
      <path fill="#FFFFFF" d="M751.336,117.785c0-4.136,1-7.926,3.008-11.374c2.002-3.446,4.729-6.172,8.178-8.178
			c3.445-2.004,7.238-3.009,11.373-3.009h90.24c4.137,0,7.926,1.005,11.375,3.009c3.445,2.006,6.172,4.731,8.178,8.178
			c2.004,3.448,3.008,7.238,3.008,11.374v112.8h-15.229v-49.444H766.563v49.444h-15.227V117.785z M871.467,165.913v-48.128
			c0-2.004-0.723-3.728-2.162-5.17c-1.441-1.439-3.166-2.162-5.17-2.162h-90.24c-2.006,0-3.73,0.723-5.17,2.162
			c-1.441,1.442-2.162,3.166-2.162,5.17v48.128H871.467z"/>
      <path fill="#FFFFFF" d="M908.127,230.585V95.413h112.801c4.135,0,7.924,1.034,11.373,3.102c3.445,2.068,6.172,4.794,8.178,8.179
			c2.004,3.384,3.008,7.144,3.008,11.279v39.668c0,4.137-1.004,7.896-3.008,11.28c-2.006,3.384-4.732,6.11-8.178,8.178
			c-3.449,2.068-7.238,3.103-11.373,3.103h-97.572v50.384H908.127z M930.688,164.785h90.24c2.002,0,3.727-0.688,5.17-2.068
			c1.439-1.378,2.162-3.069,2.162-5.076v-39.668c0-2.003-0.723-3.728-2.162-5.17c-1.443-1.439-3.168-2.162-5.17-2.162h-90.24
			c-2.006,0-3.73,0.723-5.17,2.162c-1.443,1.442-2.162,3.167-2.162,5.17v39.668c0,2.007,0.719,3.698,2.162,5.076
			C926.957,164.098,928.682,164.785,930.688,164.785z M1022.432,230.585l-44.18-52.64h19.928l44.367,52.451v0.188H1022.432z"/>
    </g>
  </g>
</svg>
