<?xml version="1.0" encoding="utf-8"?>
<!-- Generator: Adobe Illustrator 16.0.0, SVG Export Plug-In . SVG Version: 6.00 Build 0)  -->
<!DOCTYPE svg PUBLIC "-//W3C//DTD SVG 1.1//EN" "http://www.w3.org/Graphics/SVG/1.1/DTD/svg11.dtd">
<svg version="1.1" xmlns="http://www.w3.org/2000/svg" x="0px" y="0px" width="1080px"
	 height="1080px" viewBox="0 0 1080 1080" enable-background="new 0 0 1080 1080">
<defs>
	<filter id="Adobe_OpacityMaskFilter" filterUnits="userSpaceOnUse" x="368.515" y="337.642" width="338.911" height="342.952">
		<feFlood  style="flood-color:white;flood-opacity:1" result="back"/>
		<feBlend  in="SourceGraphic" in2="back" mode="normal"/>
	</filter>
</defs>
<mask maskUnits="userSpaceOnUse" x="368.515" y="337.642" width="338.911" height="342.952" id="Layer_1">
	<g filter="url(#Adobe_OpacityMaskFilter)">
		<line fill="none" stroke="#231F20" stroke-miterlimit="10" x1="504.55" y1="367.213" x2="504.55" y2="404.732"/>
		<line fill="none" stroke="#231F20" stroke-miterlimit="10" x1="504.55" y1="403.575" x2="483.49" y2="436.037"/>
		<line fill="none" stroke="#231F20" stroke-miterlimit="10" x1="483.49" y1="435.058" x2="483.49" y2="455.104"/>
		<line fill="none" stroke="#231F20" stroke-miterlimit="10" x1="476.66" y1="426.93" x2="480.218" y2="426.93"/>
		<line fill="none" stroke="#231F20" stroke-miterlimit="10" x1="479.507" y1="426.93" x2="496.582" y2="401.441"/>
		<line fill="none" stroke="#231F20" stroke-miterlimit="10" x1="496.582" y1="402.184" x2="496.582" y2="375.433"/>
		<line fill="none" stroke="#231F20" stroke-miterlimit="10" x1="476.7" y1="446.161" x2="469.973" y2="446.161"/>
		<line fill="none" stroke="#231F20" stroke-miterlimit="10" x1="470.684" y1="446.161" x2="463.57" y2="436.037"/>
		<line fill="none" stroke="#231F20" stroke-miterlimit="10" x1="464.316" y1="436.037" x2="452.47" y2="436.037"/>
		<line fill="none" stroke="#231F20" stroke-miterlimit="10" x1="453.168" y1="436.037" x2="445.854" y2="427.801"/>
		<line fill="none" stroke="#231F20" stroke-miterlimit="10" x1="472.178" y1="460.51" x2="463.57" y2="460.51"/>
		<line fill="none" stroke="#231F20" stroke-miterlimit="10" x1="459.301" y1="455.104" x2="464.316" y2="460.51"/>
		<line fill="none" stroke="#231F20" stroke-miterlimit="10" x1="459.87" y1="455.104" x2="418.604" y2="455.104"/>
		<line fill="none" stroke="#231F20" stroke-miterlimit="10" x1="452.47" y1="460.51" x2="413.625" y2="460.51"/>
		<line fill="none" stroke="#231F20" stroke-miterlimit="10" x1="484.574" y1="467.625" x2="450.87" y2="467.569"/>
		<line fill="none" stroke="#231F20" stroke-miterlimit="10" x1="451.333" y1="467.625" x2="448.771" y2="463.926"/>
		<line fill="none" stroke="#231F20" stroke-miterlimit="10" x1="449.511" y1="463.926" x2="424.297" y2="463.926"/>
		<line fill="none" stroke="#231F20" stroke-miterlimit="10" x1="424.937" y1="463.926" x2="419.743" y2="470.186"/>
		<line fill="none" stroke="#231F20" stroke-miterlimit="10" x1="420.313" y1="470.186" x2="408.929" y2="470.186"/>
		<line fill="none" stroke="#231F20" stroke-miterlimit="10" x1="409.889" y1="470.186" x2="407.308" y2="467.569"/>
		<line fill="none" stroke="#231F20" stroke-miterlimit="10" x1="447.063" y1="467.98" x2="431.412" y2="467.98"/>
		<line fill="none" stroke="#231F20" stroke-miterlimit="10" x1="446.388" y1="467.98" x2="454.178" y2="475.878"/>
		<line fill="none" stroke="#231F20" stroke-miterlimit="10" x1="453.168" y1="475.878" x2="460.938" y2="475.878"/>
		<line fill="none" stroke="#231F20" stroke-miterlimit="10" x1="432.193" y1="467.625" x2="430.141" y2="470.186"/>
		<line fill="none" stroke="#231F20" stroke-miterlimit="10" x1="422.589" y1="479.009" x2="420.313" y2="482.708"/>
		<line fill="none" stroke="#231F20" stroke-miterlimit="10" x1="420.881" y1="482.708" x2="390.68" y2="482.708"/>
		<line fill="none" stroke="#231F20" stroke-miterlimit="10" x1="423.3" y1="492.95" x2="391.854" y2="492.95"/>
		<line fill="none" stroke="#231F20" stroke-miterlimit="10" x1="392.423" y1="492.95" x2="385.023" y2="503.479"/>
		<line fill="none" stroke="#231F20" stroke-miterlimit="10" x1="385.557" y1="503.479" x2="370.369" y2="503.479"/>
		<line fill="none" stroke="#231F20" stroke-miterlimit="10" x1="367.948" y1="510.31" x2="385.023" y2="510.31"/>
		<line fill="none" stroke="#231F20" stroke-miterlimit="10" x1="384.454" y1="510.31" x2="393.134" y2="521.979"/>
		<line fill="none" stroke="#231F20" stroke-miterlimit="10" x1="392.423" y1="521.979" x2="423.158" y2="521.979"/>
		<line fill="none" stroke="#231F20" stroke-miterlimit="10" x1="433.688" y1="527.095" x2="439.771" y2="531.934"/>
		<line fill="none" stroke="#231F20" stroke-miterlimit="10" x1="438.526" y1="531.934" x2="476.66" y2="531.934"/>
		<line fill="none" stroke="#231F20" stroke-miterlimit="10" x1="383.601" y1="519.41" x2="392.423" y2="531.934"/>
		<line fill="none" stroke="#231F20" stroke-miterlimit="10" x1="391.854" y1="531.934" x2="422.02" y2="531.934"/>
		<line fill="none" stroke="#231F20" stroke-miterlimit="10" x1="421.45" y1="531.934" x2="424.297" y2="536.485"/>
		<line fill="none" stroke="#231F20" stroke-miterlimit="10" x1="430.13" y1="545.322" x2="432.265" y2="547.585"/>
		<line fill="none" stroke="#231F20" stroke-miterlimit="10" x1="431.412" y1="547.585" x2="447.881" y2="547.585"/>
		<line fill="none" stroke="#231F20" stroke-miterlimit="10" x1="447.063" y1="547.585" x2="452.47" y2="539.9"/>
		<line fill="none" stroke="#231F20" stroke-miterlimit="10" x1="451.937" y1="539.9" x2="463.57" y2="539.9"/>
		<line fill="none" stroke="#231F20" stroke-miterlimit="10" x1="484.273" y1="547.585" x2="450.656" y2="547.585"/>
		<line fill="none" stroke="#231F20" stroke-miterlimit="10" x1="451.333" y1="547.585" x2="448.771" y2="550.717"/>
		<line fill="none" stroke="#231F20" stroke-miterlimit="10" x1="449.269" y1="550.858" x2="424.297" y2="550.717"/>
		<line fill="none" stroke="#231F20" stroke-miterlimit="10" x1="425.435" y1="550.717" x2="418.106" y2="543.742"/>
		<line fill="none" stroke="#231F20" stroke-miterlimit="10" x1="418.604" y1="543.742" x2="410.636" y2="543.742"/>
		<line fill="none" stroke="#231F20" stroke-miterlimit="10" x1="411.276" y1="543.887" x2="406.652" y2="547.229"/>
		<line fill="none" stroke="#231F20" stroke-miterlimit="10" x1="407.221" y1="547.229" x2="395.482" y2="547.229"/>
		<line fill="none" stroke="#231F20" stroke-miterlimit="10" x1="473.672" y1="552.992" x2="463.57" y2="552.992"/>
		<line fill="none" stroke="#231F20" stroke-miterlimit="10" x1="464.316" y1="552.992" x2="459.407" y2="557.83"/>
		<line fill="none" stroke="#231F20" stroke-miterlimit="10" x1="459.87" y1="557.83" x2="406.652" y2="557.83"/>
		<line fill="none" stroke="#231F20" stroke-miterlimit="10" x1="452.47" y1="553.561" x2="402.739" y2="553.561"/>
		<line fill="none" stroke="#231F20" stroke-miterlimit="10" x1="410.636" y1="561.53" x2="450.051" y2="561.53"/>
		<line fill="none" stroke="#231F20" stroke-miterlimit="10" x1="449.269" y1="561.53" x2="459.87" y2="573.482"/>
		<line fill="none" stroke="#231F20" stroke-miterlimit="10" x1="458.874" y1="573.482" x2="486.621" y2="573.482"/>
		<line fill="none" stroke="#231F20" stroke-miterlimit="10" x1="485.981" y1="573.482" x2="491.744" y2="567.506"/>
		<line fill="none" stroke="#231F20" stroke-miterlimit="10" x1="503.127" y1="565.799" x2="493.985" y2="577.467"/>
		<line fill="none" stroke="#231F20" stroke-miterlimit="10" x1="495.159" y1="577.467" x2="458.02" y2="577.467"/>
		<line fill="none" stroke="#231F20" stroke-miterlimit="10" x1="458.874" y1="577.467" x2="448.309" y2="565.799"/>
		<line fill="none" stroke="#231F20" stroke-miterlimit="10" x1="448.771" y1="565.799" x2="415.225" y2="565.799"/>
		<line fill="none" stroke="#231F20" stroke-miterlimit="10" x1="396.407" y1="487.847" x2="405.514" y2="487.847"/>
		<line fill="none" stroke="#231F20" stroke-miterlimit="10" x1="409.214" y1="487.847" x2="416.697" y2="487.847"/>
		<line fill="none" stroke="#231F20" stroke-miterlimit="10" x1="396.407" y1="527.095" x2="404.518" y2="527.095"/>
		<line fill="none" stroke="#231F20" stroke-miterlimit="10" x1="408.787" y1="527.095" x2="416.697" y2="527.095"/>
		<line fill="none" stroke="#231F20" stroke-miterlimit="10" x1="574.274" y1="443.119" x2="574.274" y2="450.086"/>
		<line fill="none" stroke="#231F20" stroke-miterlimit="10" x1="601.88" y1="443.119" x2="601.88" y2="455.122"/>
		<line fill="none" stroke="#231F20" stroke-miterlimit="10" x1="621.303" y1="441.782" x2="616.432" y2="449.12"/>
		<line fill="none" stroke="#231F20" stroke-miterlimit="10" x1="617.14" y1="449.12" x2="612.448" y2="449.12"/>
		<line fill="none" stroke="#231F20" stroke-miterlimit="10" x1="657.944" y1="456.829" x2="624.361" y2="456.829"/>
		<line fill="none" stroke="#231F20" stroke-miterlimit="10" x1="625.038" y1="456.829" x2="621.303" y2="459.106"/>
		<line fill="none" stroke="#231F20" stroke-miterlimit="10" x1="621.801" y1="459.106" x2="611.554" y2="459.106"/>
		<line fill="none" stroke="#231F20" stroke-miterlimit="10" x1="661.926" y1="460.529" x2="632.687" y2="460.529"/>
		<line fill="none" stroke="#231F20" stroke-miterlimit="10" x1="673.289" y1="471.343" x2="665.343" y2="471.343"/>
		<line fill="none" stroke="#231F20" stroke-miterlimit="10" x1="666.125" y1="471.129" x2="657.088" y2="463.375"/>
		<line fill="none" stroke="#231F20" stroke-miterlimit="10" x1="657.942" y1="463.66" x2="635.745" y2="463.66"/>
		<line fill="none" stroke="#231F20" stroke-miterlimit="10" x1="636.457" y1="463.66" x2="630.552" y2="467.501"/>
		<line fill="none" stroke="#231F20" stroke-miterlimit="10" x1="631.192" y1="467.501" x2="599.032" y2="467.501"/>
		<line fill="none" stroke="#231F20" stroke-miterlimit="10" x1="637.169" y1="467.501" x2="651.683" y2="467.501"/>
		<line fill="none" stroke="#231F20" stroke-miterlimit="10" x1="650.757" y1="467.501" x2="653.105" y2="469.636"/>
		<line fill="none" stroke="#231F20" stroke-miterlimit="10" x1="637.736" y1="467.501" x2="630.552" y2="474.758"/>
		<line fill="none" stroke="#231F20" stroke-miterlimit="10" x1="631.192" y1="474.758" x2="619.808" y2="474.758"/>
		<line fill="none" stroke="#231F20" stroke-miterlimit="10" x1="659.936" y1="479.597" x2="663.776" y2="482.727"/>
		<line fill="none" stroke="#231F20" stroke-miterlimit="10" x1="663.209" y1="482.727" x2="685.228" y2="482.727"/>
		<line fill="none" stroke="#231F20" stroke-miterlimit="10" x1="685.228" y1="488.704" x2="678.147" y2="488.704"/>
		<line fill="none" stroke="#231F20" stroke-miterlimit="10" x1="673.596" y1="488.704" x2="667.477" y2="488.704"/>
		<line fill="none" stroke="#231F20" stroke-miterlimit="10" x1="705.932" y1="504.071" x2="698.923" y2="504.071"/>
		<line fill="none" stroke="#231F20" stroke-miterlimit="10" x1="699.528" y1="504.071" x2="690.386" y2="492.972"/>
		<line fill="none" stroke="#231F20" stroke-miterlimit="10" x1="691.204" y1="492.972" x2="660.077" y2="492.972"/>
		<line fill="none" stroke="#231F20" stroke-miterlimit="10" x1="708.493" y1="510.616" x2="698.923" y2="510.616"/>
		<line fill="none" stroke="#231F20" stroke-miterlimit="10" x1="700.062" y1="510.616" x2="691.845" y2="520.861"/>
		<line fill="none" stroke="#231F20" stroke-miterlimit="10" x1="692.663" y1="520.861" x2="660.575" y2="520.861"/>
		<line fill="none" stroke="#231F20" stroke-miterlimit="10" x1="685.407" y1="527.095" x2="677.153" y2="527.095"/>
		<line fill="none" stroke="#231F20" stroke-miterlimit="10" x1="672.6" y1="527.095" x2="667.477" y2="527.095"/>
		<line fill="none" stroke="#231F20" stroke-miterlimit="10" x1="651.179" y1="528.405" x2="647.556" y2="532.53"/>
		<line fill="none" stroke="#231F20" stroke-miterlimit="10" x1="648.268" y1="532.53" x2="609.563" y2="532.53"/>
		<line fill="none" stroke="#231F20" stroke-miterlimit="10" x1="691.845" y1="533.667" x2="661.643" y2="533.667"/>
		<line fill="none" stroke="#231F20" stroke-miterlimit="10" x1="680.213" y1="545.372" x2="675.587" y2="541.922"/>
		<line fill="none" stroke="#231F20" stroke-miterlimit="10" x1="676.156" y1="541.922" x2="665.343" y2="541.922"/>
		<line fill="none" stroke="#231F20" stroke-miterlimit="10" x1="666.125" y1="541.938" x2="658.44" y2="550.174"/>
		<line fill="none" stroke="#231F20" stroke-miterlimit="10" x1="659.223" y1="550.174" x2="634.181" y2="550.174"/>
		<line fill="none" stroke="#231F20" stroke-miterlimit="10" x1="635.282" y1="550.174" x2="630.552" y2="545.372"/>
		<line fill="none" stroke="#231F20" stroke-miterlimit="10" x1="631.192" y1="545.372" x2="599.032" y2="545.372"/>
		<line fill="none" stroke="#231F20" stroke-miterlimit="10" x1="620.804" y1="538.507" x2="631.192" y2="538.507"/>
		<line fill="none" stroke="#231F20" stroke-miterlimit="10" x1="630.552" y1="538.507" x2="636.351" y2="545.372"/>
		<line fill="none" stroke="#231F20" stroke-miterlimit="10" x1="635.745" y1="545.372" x2="651.683" y2="545.372"/>
		<line fill="none" stroke="#231F20" stroke-miterlimit="10" x1="650.766" y1="545.926" x2="653.326" y2="543.344"/>
		<line fill="none" stroke="#231F20" stroke-miterlimit="10" x1="611.554" y1="553.013" x2="619.164" y2="552.992"/>
		<line fill="none" stroke="#231F20" stroke-miterlimit="10" x1="618.669" y1="552.557" x2="624.361" y2="557.566"/>
		<line fill="none" stroke="#231F20" stroke-miterlimit="10" x1="623.649" y1="557.566" x2="668.579" y2="557.566"/>
		<line fill="none" stroke="#231F20" stroke-miterlimit="10" x1="673.596" y1="553.013" x2="632.687" y2="553.013"/>
		<line fill="none" stroke="#231F20" stroke-miterlimit="10" x1="663.776" y1="562.553" x2="634.181" y2="562.553"/>
		<line fill="none" stroke="#231F20" stroke-miterlimit="10" x1="634.642" y1="562.553" x2="626.425" y2="571.633"/>
		<line fill="none" stroke="#231F20" stroke-miterlimit="10" x1="626.923" y1="571.633" x2="596.471" y2="571.633"/>
		<line fill="none" stroke="#231F20" stroke-miterlimit="10" x1="596.97" y1="571.633" x2="592.203" y2="567.093"/>
		<line fill="none" stroke="#231F20" stroke-miterlimit="10" x1="659.936" y1="566.367" x2="637.169" y2="566.367"/>
		<line fill="none" stroke="#231F20" stroke-miterlimit="10" x1="638.164" y1="566.367" x2="627.813" y2="577.467"/>
		<line fill="none" stroke="#231F20" stroke-miterlimit="10" x1="628.916" y1="577.467" x2="592.203" y2="577.467"/>
		<line fill="none" stroke="#231F20" stroke-miterlimit="10" x1="593.128" y1="577.467" x2="582.812" y2="567.093"/>
		<line fill="none" stroke="#231F20" stroke-miterlimit="10" x1="633.042" y1="592.566" x2="594.338" y2="592.566"/>
		<line fill="none" stroke="#231F20" stroke-miterlimit="10" x1="595.156" y1="592.566" x2="586.568" y2="581.543"/>
		<line fill="none" stroke="#231F20" stroke-miterlimit="10" x1="629.733" y1="595.98" x2="587.507" y2="595.98"/>
		<line fill="none" stroke="#231F20" stroke-miterlimit="10" x1="588.452" y1="595.98" x2="584.947" y2="592.129"/>
		<line fill="none" stroke="#231F20" stroke-miterlimit="10" x1="622.049" y1="603.95" x2="582.812" y2="603.95"/>
		<line fill="none" stroke="#231F20" stroke-miterlimit="10" x1="583.59" y1="603.95" x2="574.274" y2="590.858"/>
		<line fill="none" stroke="#231F20" stroke-miterlimit="10" x1="574.846" y1="590.858" x2="569.151" y2="590.858"/>
		<line fill="none" stroke="#231F20" stroke-miterlimit="10" x1="614.899" y1="611.633" x2="596.471" y2="611.633"/>
		<line fill="none" stroke="#231F20" stroke-miterlimit="10" x1="588.636" y1="613.381" x2="578.542" y2="628.436"/>
		<line fill="none" stroke="#231F20" stroke-miterlimit="10" x1="578.542" y1="627.855" x2="578.542" y2="648.385"/>
		<line fill="none" stroke="#231F20" stroke-miterlimit="10" x1="581.674" y1="613.922" x2="570.289" y2="629.99"/>
		<line fill="none" stroke="#231F20" stroke-miterlimit="10" x1="570.289" y1="629.277" x2="570.289" y2="656.29"/>
		<line fill="none" stroke="#231F20" stroke-miterlimit="10" x1="574.846" y1="611.299" x2="561.184" y2="633.984"/>
		<line fill="none" stroke="#231F20" stroke-miterlimit="10" x1="561.184" y1="633.547" x2="561.184" y2="666.215"/>
		<line fill="none" stroke="#231F20" stroke-miterlimit="10" x1="563.744" y1="613.768" x2="563.744" y2="625.294"/>
		<line fill="none" stroke="#231F20" stroke-miterlimit="10" x1="563.744" y1="624.154" x2="557.198" y2="631.408"/>
		<line fill="none" stroke="#231F20" stroke-miterlimit="10" x1="557.198" y1="630.56" x2="557.198" y2="671.123"/>
		<line fill="none" stroke="#231F20" stroke-miterlimit="10" x1="558.48" y1="615.902" x2="553.214" y2="624.594"/>
		<line fill="none" stroke="#231F20" stroke-miterlimit="10" x1="553.214" y1="624.154" x2="553.214" y2="674.111"/>
		<line fill="none" stroke="#231F20" stroke-miterlimit="10" x1="548.412" y1="632.374" x2="548.412" y2="642.843"/>
		<line fill="none" stroke="#231F20" stroke-miterlimit="10" x1="548.412" y1="642.096" x2="544.963" y2="647.219"/>
		<line fill="none" stroke="#231F20" stroke-miterlimit="10" x1="544.963" y1="646.779" x2="544.963" y2="679.98"/>
		<line fill="none" stroke="#231F20" stroke-miterlimit="10" x1="537.945" y1="681.447" x2="537.945" y2="646.779"/>
		<line fill="none" stroke="#231F20" stroke-miterlimit="10" x1="537.945" y1="646.779" x2="536.046" y2="642.079"/>
		<line fill="none" stroke="#231F20" stroke-miterlimit="10" x1="536.046" y1="642.079" x2="536.046" y2="631.408"/>
		<line fill="none" stroke="#231F20" stroke-miterlimit="10" x1="524.757" y1="616.051" x2="531.017" y2="623.732"/>
		<line fill="none" stroke="#231F20" stroke-miterlimit="10" x1="531.017" y1="623.016" x2="531.017" y2="678.511"/>
		<line fill="none" stroke="#231F20" stroke-miterlimit="10" x1="520.201" y1="612.771" x2="520.201" y2="625.294"/>
		<line fill="none" stroke="#231F20" stroke-miterlimit="10" x1="520.201" y1="625.294" x2="525.324" y2="633.984"/>
		<line fill="none" stroke="#231F20" stroke-miterlimit="10" x1="525.324" y1="633.547" x2="525.324" y2="674.111"/>
		<line fill="none" stroke="#231F20" stroke-miterlimit="10" x1="506.969" y1="611.633" x2="520.201" y2="632.918"/>
		<line fill="none" stroke="#231F20" stroke-miterlimit="10" x1="520.201" y1="632.407" x2="520.201" y2="668.775"/>
		<line fill="none" stroke="#231F20" stroke-miterlimit="10" x1="503.127" y1="613.922" x2="510.81" y2="625.874"/>
		<line fill="none" stroke="#231F20" stroke-miterlimit="10" x1="510.81" y1="625.294" x2="510.81" y2="659.172"/>
		<path fill="none" stroke="#231F20" stroke-miterlimit="10" d="M516.503,667.697"/>
		<line fill="none" stroke="#231F20" stroke-miterlimit="10" x1="499.143" y1="619.032" x2="505.536" y2="628.436"/>
		<line fill="none" stroke="#231F20" stroke-miterlimit="10" x1="505.536" y1="627.855" x2="505.536" y2="653.729"/>
		<circle fill="#231F20" stroke="#231F20" stroke-miterlimit="10" cx="474.655" cy="426.93" r="1.908"/>
		<circle fill="none" stroke="#231F20" stroke-miterlimit="10" cx="509.282" cy="450.086" r="1.908"/>
		<circle fill="#231F20" stroke="#231F20" stroke-miterlimit="10" cx="521.135" cy="375.433" r="1.907"/>
		<circle fill="#231F20" stroke="#231F20" stroke-miterlimit="10" cx="562.891" cy="377.341" r="1.908"/>
		<circle fill="#231F20" stroke="#231F20" stroke-miterlimit="10" cx="463.57" cy="475.878" r="1.908"/>
		<circle fill="#231F20" stroke="#231F20" stroke-miterlimit="10" cx="483.49" cy="396.5" r="1.908"/>
		<circle fill="#231F20" stroke="#231F20" stroke-miterlimit="10" cx="418.604" cy="527.095" r="1.908"/>
		<circle fill="#231F20" stroke="#231F20" stroke-miterlimit="10" cx="486.621" cy="547.585" r="1.908"/>
		<circle fill="#231F20" stroke="#231F20" stroke-miterlimit="10" cx="453.395" cy="553.277" r="1.907"/>
		<circle fill="none" stroke="#231F20" stroke-miterlimit="10" cx="503.628" cy="564.459" r="1.907"/>
		<circle fill="none" stroke="#231F20" stroke-miterlimit="10" cx="511.19" cy="413.088" r="1.907"/>
		<circle fill="none" stroke="#231F20" stroke-miterlimit="10" cx="425.434" cy="493.112" r="2.135"/>
		<circle fill="none" stroke="#231F20" stroke-miterlimit="10" cx="486.621" cy="467.056" r="2.134"/>
		<circle fill="none" stroke="#231F20" stroke-miterlimit="10" cx="474.655" cy="460.51" r="2.134"/>
		<circle fill="none" stroke="#231F20" stroke-miterlimit="10" cx="478.083" cy="445.57" r="2.134"/>
		<circle fill="none" stroke="#231F20" stroke-miterlimit="10" cx="495.586" cy="435.593" r="2.135"/>
		<circle fill="none" stroke="#231F20" stroke-miterlimit="10" cx="499.142" cy="429.936" r="2.135"/>
		<circle fill="none" stroke="#231F20" stroke-miterlimit="10" cx="507.375" cy="418.727" r="2.135"/>
		<circle fill="#231F20" stroke="#231F20" stroke-miterlimit="10" cx="503.127" cy="424.529" r="2.135"/>
		<circle fill="#231F20" stroke="#231F20" stroke-miterlimit="10" cx="491.744" cy="440.804" r="2.134"/>
		<circle fill="none" stroke="#231F20" stroke-miterlimit="10" cx="522.843" cy="430.785" r="2.135"/>
		<circle fill="none" stroke="#231F20" stroke-miterlimit="10" cx="537.292" cy="416.592" r="2.134"/>
		<circle fill="none" stroke="#231F20" stroke-miterlimit="10" cx="547.95" cy="416.592" r="2.134"/>
		<circle fill="none" stroke="#231F20" stroke-miterlimit="10" cx="530.163" cy="358.357" r="2.134"/>
		<circle fill="none" stroke="#231F20" stroke-miterlimit="10" cx="423.3" cy="477.786" r="2.134"/>
		<circle fill="none" stroke="#231F20" stroke-miterlimit="10" cx="429.135" cy="471.929" r="2.135"/>
		<circle fill="none" stroke="#231F20" stroke-miterlimit="10" cx="407.08" cy="487.847" r="2.134"/>
		<circle fill="none" stroke="#231F20" stroke-miterlimit="10" cx="418.604" cy="487.847" r="2.134"/>
		<circle fill="none" stroke="#231F20" stroke-miterlimit="10" cx="394.557" cy="487.847" r="2.135"/>
		<circle fill="none" stroke="#231F20" stroke-miterlimit="10" cx="382.319" cy="517.276" r="2.134"/>
		<circle fill="none" stroke="#231F20" stroke-miterlimit="10" cx="425.434" cy="521.979" r="2.135"/>
		<circle fill="none" stroke="#231F20" stroke-miterlimit="10" cx="432.264" cy="525.672" r="2.135"/>
		<circle fill="none" stroke="#231F20" stroke-miterlimit="10" cx="478.083" cy="531.934" r="2.134"/>
		<circle fill="none" stroke="#231F20" stroke-miterlimit="10" cx="465.477" cy="539.9" r="2.135"/>
		<circle fill="none" stroke="#231F20" stroke-miterlimit="10" cx="429.135" cy="543.887" r="2.135"/>
		<circle fill="none" stroke="#231F20" stroke-miterlimit="10" cx="425.434" cy="537.766" r="2.135"/>
		<circle fill="none" stroke="#231F20" stroke-miterlimit="10" cx="394.557" cy="527.095" r="2.135"/>
		<circle fill="none" stroke="#231F20" stroke-miterlimit="10" cx="406.653" cy="527.095" r="2.135"/>
		<circle fill="none" stroke="#231F20" stroke-miterlimit="10" cx="475.949" cy="552.992" r="2.134"/>
		<circle fill="none" stroke="#231F20" stroke-miterlimit="10" cx="493.024" cy="565.799" r="2.134"/>
		<circle fill="none" stroke="#231F20" stroke-miterlimit="10" cx="455.303" cy="460.51" r="2.135"/>
		<circle fill="none" stroke="#231F20" stroke-miterlimit="10" cx="609.563" cy="459.106" r="2.133"/>
		<circle fill="none" stroke="#231F20" stroke-miterlimit="10" cx="596.472" cy="467.501" r="2.134"/>
		<circle fill="none" stroke="#231F20" stroke-miterlimit="10" cx="601.879" cy="456.829" r="2.135"/>
		<circle fill="none" stroke="#231F20" stroke-miterlimit="10" cx="609.563" cy="449.12" r="2.133"/>
		<circle fill="none" stroke="#231F20" stroke-miterlimit="10" cx="607.428" cy="532.53" r="2.134"/>
		<circle fill="none" stroke="#231F20" stroke-miterlimit="10" cx="658.441" cy="520.861" r="2.134"/>
		<circle fill="none" stroke="#231F20" stroke-miterlimit="10" cx="651.682" cy="526.834" r="2.134"/>
		<circle fill="none" stroke="#231F20" stroke-miterlimit="10" cx="658.441" cy="477.786" r="2.134"/>
		<circle fill="none" stroke="#231F20" stroke-miterlimit="10" cx="654.244" cy="471.343" r="2.134"/>
		<circle fill="none" stroke="#231F20" stroke-miterlimit="10" cx="657.942" cy="492.972" r="2.135"/>
		<circle fill="none" stroke="#231F20" stroke-miterlimit="10" cx="665.343" cy="488.704" r="2.134"/>
		<circle fill="none" stroke="#231F20" stroke-miterlimit="10" cx="676.013" cy="488.704" r="2.134"/>
		<circle fill="none" stroke="#231F20" stroke-miterlimit="10" cx="686.829" cy="488.704" r="2.134"/>
		<circle fill="none" stroke="#231F20" stroke-miterlimit="10" cx="630.552" cy="461.241" r="2.134"/>
		<circle fill="none" stroke="#231F20" stroke-miterlimit="10" cx="675.588" cy="527.095" r="2.135"/>
		<circle fill="none" stroke="#231F20" stroke-miterlimit="10" cx="686.829" cy="527.095" r="2.134"/>
		<circle fill="none" stroke="#231F20" stroke-miterlimit="10" cx="618.669" cy="538.507" r="2.135"/>
		<circle fill="none" stroke="#231F20" stroke-miterlimit="10" cx="609.563" cy="552.992" r="2.133"/>
		<circle fill="none" stroke="#231F20" stroke-miterlimit="10" cx="590.46" cy="565.799" r="2.135"/>
		<circle fill="none" stroke="#231F20" stroke-miterlimit="10" cx="585.373" cy="580.613" r="2.134"/>
		<path fill="none" stroke="#231F20" stroke-miterlimit="10" d="M581.105,590.858c0-1.179,0.957-2.135,2.134-2.135
			c1.182,0,2.135,0.956,2.135,2.135s-0.953,2.134-2.135,2.134C582.063,592.992,581.105,592.037,581.105,590.858z"/>
		<circle fill="none" stroke="#231F20" stroke-miterlimit="10" cx="563.745" cy="611.633" r="2.134"/>
		<circle fill="none" stroke="#231F20" stroke-miterlimit="10" cx="520.201" cy="610.637" r="2.135"/>
		<circle fill="none" stroke="#231F20" stroke-miterlimit="10" cx="659.223" cy="533.667" r="2.135"/>
		<circle fill="none" stroke="#231F20" stroke-miterlimit="10" cx="654.244" cy="541.938" r="2.134"/>
		<circle fill="#231F20" stroke="#231F20" stroke-miterlimit="10" cx="596.472" cy="611.633" r="2.134"/>
		<circle fill="none" stroke="#231F20" stroke-miterlimit="10" cx="589.855" cy="611.633" r="2.134"/>
		<circle fill="none" stroke="#231F20" stroke-miterlimit="10" cx="582.812" cy="611.633" r="2.134"/>
		<circle fill="none" stroke="#231F20" stroke-miterlimit="10" cx="548.412" cy="629.99" r="2.135"/>
		<circle fill="none" stroke="#231F20" stroke-miterlimit="10" cx="536.046" cy="629.99" r="2.134"/>
		<circle fill="#231F20" stroke="#231F20" stroke-miterlimit="10" cx="574.272" cy="450.086" r="2.134"/>
		<circle fill="#231F20" stroke="#231F20" stroke-miterlimit="10" cx="618.669" cy="474.758" r="2.135"/>
		<circle fill="#231F20" stroke="#231F20" stroke-miterlimit="10" cx="596.473" cy="545.677" r="2.134"/>
		<circle fill="#231F20" stroke="#231F20" stroke-miterlimit="10" cx="630.552" cy="552.992" r="2.134"/>
		<circle fill="#231F20" stroke="#231F20" stroke-miterlimit="10" cx="568.582" cy="590.858" r="2.134"/>
		<circle fill="#231F20" stroke="#231F20" stroke-miterlimit="10" cx="581.674" cy="565.799" r="2.134"/>
		<circle fill="#231F20" stroke="#231F20" stroke-miterlimit="10" cx="558.48" cy="615.902" r="2.134"/>
		<path fill="#231F20" stroke="#231F20" stroke-miterlimit="10" d="M573.849,609.5c0-1.182,0.956-2.135,2.134-2.135
			c1.181,0,2.135,0.953,2.135,2.135c0,1.176-0.954,2.133-2.135,2.133C574.805,611.633,573.849,610.676,573.849,609.5z"/>
		<circle fill="#231F20" stroke="#231F20" stroke-miterlimit="10" cx="525.323" cy="615.902" r="2.135"/>
		<circle fill="#231F20" stroke="#231F20" stroke-miterlimit="10" cx="664.543" cy="527.095" r="2.134"/>
		<line fill="none" stroke="#231F20" stroke-miterlimit="10" x1="580.251" y1="379.249" x2="580.251" y2="395.899"/>
		<line fill="none" stroke="#231F20" stroke-miterlimit="10" x1="570.289" y1="369.267" x2="570.289" y2="381.979"/>
		<line fill="none" stroke="#231F20" stroke-miterlimit="10" x1="570.289" y1="381.128" x2="566.304" y2="386.999"/>
		<line fill="none" stroke="#231F20" stroke-miterlimit="10" x1="566.304" y1="385.962" x2="566.304" y2="411.007"/>
		<line fill="none" stroke="#231F20" stroke-miterlimit="10" x1="562.891" y1="361.635" x2="562.891" y2="375.433"/>
		<line fill="none" stroke="#231F20" stroke-miterlimit="10" x1="560.024" y1="359.231" x2="552.858" y2="366.398"/>
		<line fill="none" stroke="#231F20" stroke-miterlimit="10" x1="552.858" y1="365.619" x2="552.858" y2="409.583"/>
		<line fill="none" stroke="#231F20" stroke-miterlimit="10" x1="552.858" y1="408.734" x2="559.866" y2="416.592"/>
		<line fill="none" stroke="#231F20" stroke-miterlimit="10" x1="542.4" y1="340.717" x2="542.4" y2="379.275"/>
		<line fill="none" stroke="#231F20" stroke-miterlimit="10" x1="542.4" y1="377.425" x2="547.949" y2="383.619"/>
		<line fill="none" stroke="#231F20" stroke-miterlimit="10" x1="542.4" y1="377.425" x2="537.292" y2="382.975"/>
		<line fill="none" stroke="#231F20" stroke-miterlimit="10" x1="537.292" y1="382.534" x2="537.292" y2="414.458"/>
		<line fill="none" stroke="#231F20" stroke-miterlimit="10" x1="547.949" y1="382.975" x2="547.949" y2="414.458"/>
		<line fill="none" stroke="#231F20" stroke-miterlimit="10" x1="530.163" y1="340.717" x2="530.163" y2="355.796"/>
		<line fill="none" stroke="#231F20" stroke-miterlimit="10" x1="525.324" y1="346.8" x2="525.324" y2="362.378"/>
		<line fill="none" stroke="#231F20" stroke-miterlimit="10" x1="525.324" y1="361.635" x2="529.753" y2="367.611"/>
		<line fill="none" stroke="#231F20" stroke-miterlimit="10" x1="529.753" y1="366.807" x2="529.753" y2="411.899"/>
		<line fill="none" stroke="#231F20" stroke-miterlimit="10" x1="529.753" y1="411.007" x2="522.843" y2="419.259"/>
		<line fill="none" stroke="#231F20" stroke-miterlimit="10" x1="522.843" y1="418.727" x2="522.843" y2="428.651"/>
		<line fill="none" stroke="#231F20" stroke-miterlimit="10" x1="521.135" y1="351.176" x2="521.135" y2="373.525"/>
		<line fill="none" stroke="#231F20" stroke-miterlimit="10" x1="514.225" y1="357.58" x2="514.225" y2="381.979"/>
		<line fill="none" stroke="#231F20" stroke-miterlimit="10" x1="514.225" y1="381.128" x2="518.939" y2="386.692"/>
		<line fill="none" stroke="#231F20" stroke-miterlimit="10" x1="518.939" y1="385.554" x2="518.939" y2="429.22"/>
		<line fill="none" stroke="#231F20" stroke-miterlimit="10" x1="518.654" y1="428.672" x2="509.083" y2="438.247"/>
		<line fill="none" stroke="#231F20" stroke-miterlimit="10" x1="509.509" y1="437.819" x2="509.283" y2="448.178"/>
		<line fill="none" stroke="#231F20" stroke-miterlimit="10" x1="488.529" y1="384.336" x2="488.529" y2="389.379"/>
		<line fill="none" stroke="#231F20" stroke-miterlimit="10" x1="488.529" y1="388.314" x2="484.103" y2="395.827"/>
	</g>
</mask>
<g id="Layer_2" mask="url(#Layer_1)">
	<path fill="#FFFFFF" d="M472.798,507.357c0,0-2.434,2.188-2.47,3.829c-0.036,1.64,1.992,3.913,1.992,3.913l65.412,65.431
		c0,0-98.424,0.996-104.045-0.545c-5.62-1.541-62.215-58.832-63.208-60.831c-4.666-9.392,0.444-14.514,0.444-14.514l163.949-165.898
		c0,0,1.037-1.179,1.65-1.095c0.776,0.105,3.032,2.076,3.032,2.076l50.052,50.514L472.798,507.357z"/>
	<path fill="#FFFFFF" d="M488.969,633.771c-0.107,3.949,8.417,10.795,8.417,10.795l23.799,24.018c0,0,10.193,11.582,18.229,12.002
		c8.033,0.421,22.038-16.306,22.038-16.306l143.566-145.273c0,0,5.108-5.123,0.442-14.514c-0.759-1.526-36.734-36.525-53.688-52.974
		c-5.243-5.087-7.249-7.326-9.176-7.943c-1.928-0.617-17.453-0.457-17.453-0.457h-86.935l64.188,64.206c0,0,3.5,3.002,3.538,4.856
		c0.038,1.854-3.149,4.465-3.149,4.465L498.314,621.398C498.314,621.398,489.076,629.822,488.969,633.771z"/>
</g>
</svg>
